<?xml version="1.0" encoding="UTF-8" standalone="no"?>
<!-- Created with Inkscape (http://www.inkscape.org/) -->

<svg
   xmlns:dc="http://purl.org/dc/elements/1.1/"
   xmlns:cc="http://creativecommons.org/ns#"
   xmlns:rdf="http://www.w3.org/1999/02/22-rdf-syntax-ns#"
   xmlns:svg="http://www.w3.org/2000/svg"
   xmlns="http://www.w3.org/2000/svg"
   xmlns:sodipodi="http://sodipodi.sourceforge.net/DTD/sodipodi-0.dtd"
   xmlns:inkscape="http://www.inkscape.org/namespaces/inkscape"
   width="75"
   height="37.128708"
   viewBox="0 0 19.843749 9.8236375"
   version="1.1"
   id="svg3719"
   inkscape:version="0.92.3 (2405546, 2018-03-11)"
   sodipodi:docname="cmanager_small.svg">
  <defs
     id="defs3713">
    <clipPath
       clipPathUnits="userSpaceOnUse"
       id="clipPath69">
      <g
         transform="translate(-1.7654665e-6,-7.791545e-6)"
         inkscape:label="Clip"
         id="use71">
        <path
           inkscape:connector-curvature="0"
           id="path65"
           transform="matrix(0.26458333,0,0,0.26458333,73.237047,134.76503)"
           d="M 75,1.7363281 A 74.999999,74.999999 0 0 0 0,76.736328 74.999999,74.999999 0 0 0 75,151.73633 74.999999,74.999999 0 0 0 147.8418,94.236328 H 105.27344 A 35.000001,35.000001 0 0 1 75,111.73633 35.000001,35.000001 0 0 1 40,76.736328 a 35.000001,35.000001 0 0 1 35,-35 35.000001,35.000001 0 0 1 30.25977,17.5 H 147.8418 A 74.999999,74.999999 0 0 0 75,1.7363281 Z"
           style="display:inline;fill:#ff0000;stroke-width:1.93599772" />
        <text
           transform="scale(1.0424849,0.95924654)"
           id="text69"
           y="165.62634"
           x="82.835732"
           style="font-style:normal;font-weight:normal;font-size:16.31052208px;line-height:1.25;font-family:sans-serif;letter-spacing:0px;word-spacing:0px;fill:#000000;fill-opacity:1;stroke:none;stroke-width:0.40776306"
           xml:space="preserve"><tspan
             style="font-style:normal;font-variant:normal;font-weight:normal;font-stretch:normal;font-family:'Bauhaus 93';-inkscape-font-specification:'Bauhaus 93, ';stroke-width:0.40776306"
             y="165.62634"
             x="82.835732"
             id="tspan67"
             sodipodi:role="line">manager</tspan></text>
      </g>
    </clipPath>
  </defs>
  <sodipodi:namedview
     id="base"
     pagecolor="#ffffff"
     bordercolor="#666666"
     borderopacity="1.0"
     inkscape:pageopacity="0.0"
     inkscape:pageshadow="2"
     inkscape:zoom="11.2"
     inkscape:cx="27.393658"
     inkscape:cy="14.74689"
     inkscape:document-units="mm"
     inkscape:current-layer="layer2"
     showgrid="false"
     inkscape:window-width="1920"
     inkscape:window-height="1027"
     inkscape:window-x="-8"
     inkscape:window-y="-8"
     inkscape:window-maximized="1"
     units="px" />
  <metadata
     id="metadata3716">
    <rdf:RDF>
      <cc:Work
         rdf:about="">
        <dc:format>image/svg+xml</dc:format>
        <dc:type
           rdf:resource="http://purl.org/dc/dcmitype/StillImage" />
        <dc:title />
      </cc:Work>
    </rdf:RDF>
  </metadata>
  <g
     inkscape:label="Layer 1"
     inkscape:groupmode="layer"
     id="layer1"
     transform="translate(-73.237047,-165.0883)"
     style="display:inline" />
  <g
     inkscape:groupmode="layer"
     id="layer2"
     inkscape:label="Layer 2"
     transform="translate(-73.237047,-165.0883)"
     style="display:inline">
    <path
       inkscape:connector-curvature="0"
       id="path34"
       d="m 78.148865,165.0883 a 4.9118182,4.9118182 0 0 0 -4.911818,4.91182 4.9118182,4.9118182 0 0 0 4.911818,4.91182 4.9118182,4.9118182 0 0 0 4.770476,-3.76573 H 80.1315 a 2.2921819,2.2921819 0 0 1 -1.982635,1.14609 2.2921819,2.2921819 0 0 1 -2.292182,-2.29218 2.2921819,2.2921819 0 0 1 2.292182,-2.29218 2.2921819,2.2921819 0 0 1 1.98174,1.14609 h 2.788736 a 4.9118182,4.9118182 0 0 0 -4.770476,-3.76573 z"
       style="display:inline;fill:#678cb1;stroke-width:0.12679026;fill-opacity:1" />
    <text
       transform="scale(1.0424849,0.95924653)"
       id="text3831"
       y="178.20525"
       x="73.367073"
       style="font-style:normal;font-weight:normal;font-size:4.03725767px;line-height:1.25;font-family:sans-serif;letter-spacing:0px;word-spacing:0px;fill:#000000;fill-opacity:1;stroke:none;stroke-width:0.10093144"
       xml:space="preserve"><tspan
         style="font-style:normal;font-variant:normal;font-weight:normal;font-stretch:normal;font-family:'Bauhaus 93';-inkscape-font-specification:'Bauhaus 93, ';stroke-width:0.10093144"
         y="178.20525"
         x="73.367073"
         id="tspan3829"
         sodipodi:role="line">manager</tspan></text>
  </g>
</svg>
