<?xml version="1.0" encoding="UTF-8" standalone="no"?>
<!-- Created with Inkscape (http://www.inkscape.org/) -->

<svg
   xmlns:dc="http://purl.org/dc/elements/1.1/"
   xmlns:cc="http://creativecommons.org/ns#"
   xmlns:rdf="http://www.w3.org/1999/02/22-rdf-syntax-ns#"
   xmlns:svg="http://www.w3.org/2000/svg"
   xmlns="http://www.w3.org/2000/svg"
   xmlns:sodipodi="http://sodipodi.sourceforge.net/DTD/sodipodi-0.dtd"
   xmlns:inkscape="http://www.inkscape.org/namespaces/inkscape"
   width="150"
   height="74.257416"
   viewBox="0 0 39.687498 19.647275"
   version="1.1"
   id="svg3719"
   inkscape:version="0.92.3 (2405546, 2018-03-11)"
   sodipodi:docname="cmanager_medium.svg">
  <defs
     id="defs3713">
    <clipPath
       clipPathUnits="userSpaceOnUse"
       id="clipPath69">
      <g
         transform="translate(-8.6378259e-7,-2.7156238e-6)"
         inkscape:label="Clip"
         id="use71">
        <path
           inkscape:connector-curvature="0"
           id="path5211"
           transform="matrix(0.26458333,0,0,0.26458333,73.237047,134.76503)"
           d="M 75,1.7363281 A 74.999999,74.999999 0 0 0 0,76.736328 74.999999,74.999999 0 0 0 75,151.73633 74.999999,74.999999 0 0 0 147.8418,94.236328 H 105.27344 A 35.000001,35.000001 0 0 1 75,111.73633 35.000001,35.000001 0 0 1 40,76.736328 a 35.000001,35.000001 0 0 1 35,-35 35.000001,35.000001 0 0 1 30.25977,17.5 H 147.8418 A 74.999999,74.999999 0 0 0 75,1.7363281 Z"
           style="display:inline;fill:#ff0000;stroke-width:1.93599772" />
        <text
           transform="scale(1.0424849,0.95924654)"
           id="text5215"
           y="165.62634"
           x="82.835732"
           style="font-style:normal;font-weight:normal;font-size:16.31052208px;line-height:1.25;font-family:sans-serif;letter-spacing:0px;word-spacing:0px;fill:#000000;fill-opacity:1;stroke:none;stroke-width:0.40776306"
           xml:space="preserve"><tspan
             style="font-style:normal;font-variant:normal;font-weight:normal;font-stretch:normal;font-family:'Bauhaus 93';-inkscape-font-specification:'Bauhaus 93, ';stroke-width:0.40776306"
             y="165.62634"
             x="82.835732"
             id="tspan5213"
             sodipodi:role="line">manager</tspan></text>
      </g>
    </clipPath>
  </defs>
  <sodipodi:namedview
     id="base"
     pagecolor="#ffffff"
     bordercolor="#666666"
     borderopacity="1.0"
     inkscape:pageopacity="0.0"
     inkscape:pageshadow="2"
     inkscape:zoom="2.8"
     inkscape:cx="67.709476"
     inkscape:cy="87.474881"
     inkscape:document-units="mm"
     inkscape:current-layer="layer2"
     showgrid="false"
     inkscape:window-width="1920"
     inkscape:window-height="1027"
     inkscape:window-x="-8"
     inkscape:window-y="-8"
     inkscape:window-maximized="1"
     units="px" />
  <metadata
     id="metadata3716">
    <rdf:RDF>
      <cc:Work
         rdf:about="">
        <dc:format>image/svg+xml</dc:format>
        <dc:type
           rdf:resource="http://purl.org/dc/dcmitype/StillImage" />
        <dc:title />
      </cc:Work>
    </rdf:RDF>
  </metadata>
  <g
     inkscape:label="Layer 1"
     inkscape:groupmode="layer"
     id="layer1"
     transform="translate(-73.237047,-155.26466)"
     style="display:inline" />
  <g
     inkscape:groupmode="layer"
     id="layer2"
     inkscape:label="Layer 2"
     transform="translate(-73.237047,-155.26466)"
     style="display:inline">
    <path
       inkscape:connector-curvature="0"
       id="path34"
       d="m 83.060684,155.26466 a 9.8236371,9.8236371 0 0 0 -9.823637,9.82363 9.8236371,9.8236371 0 0 0 9.823637,9.82364 9.8236371,9.8236371 0 0 0 9.540953,-7.53145 h -5.575682 a 4.5843642,4.5843642 0 0 1 -3.965271,2.29218 4.5843642,4.5843642 0 0 1 -4.584364,-4.58437 4.5843642,4.5843642 0 0 1 4.584364,-4.58436 4.5843642,4.5843642 0 0 1 3.96348,2.29218 h 5.577473 a 9.8236371,9.8236371 0 0 0 -9.540953,-7.53145 z"
       style="display:inline;fill:#678cb1;stroke-width:0.25358051;fill-opacity:1" />
    <text
       transform="scale(1.0424849,0.95924652)"
       id="text3831"
       y="174.06746"
       x="76.481766"
       style="font-style:normal;font-weight:normal;font-size:8.07451534px;line-height:1.25;font-family:sans-serif;letter-spacing:0px;word-spacing:0px;fill:#000000;fill-opacity:1;stroke:none;stroke-width:0.20186289"
       xml:space="preserve"><tspan
         style="font-style:normal;font-variant:normal;font-weight:normal;font-stretch:normal;font-family:'Bauhaus 93';-inkscape-font-specification:'Bauhaus 93, ';stroke-width:0.20186289"
         y="174.06746"
         x="76.481766"
         id="tspan3829"
         sodipodi:role="line">manager</tspan></text>
  </g>
</svg>
