<?xml version="1.0" encoding="UTF-8" standalone="no"?>
<!-- Created with Inkscape (http://www.inkscape.org/) -->

<svg
   xmlns:dc="http://purl.org/dc/elements/1.1/"
   xmlns:cc="http://creativecommons.org/ns#"
   xmlns:rdf="http://www.w3.org/1999/02/22-rdf-syntax-ns#"
   xmlns:svg="http://www.w3.org/2000/svg"
   xmlns="http://www.w3.org/2000/svg"
   xmlns:sodipodi="http://sodipodi.sourceforge.net/DTD/sodipodi-0.dtd"
   xmlns:inkscape="http://www.inkscape.org/namespaces/inkscape"
   width="500.00003"
   height="500.00003"
   viewBox="0 0 132.29167 132.29168"
   version="1.1"
   id="svg8"
   inkscape:version="0.92.3 (2405546, 2018-03-11)"
   sodipodi:docname="logo.svg"
   inkscape:export-filename="A:\Websites\constmanager\public\images\logo-256.png"
   inkscape:export-xdpi="49.151997"
   inkscape:export-ydpi="49.151997">
  <defs
     id="defs2" />
  <sodipodi:namedview
     id="base"
     pagecolor="#ffffff"
     bordercolor="#666666"
     borderopacity="1.0"
     inkscape:pageopacity="0.0"
     inkscape:pageshadow="2"
     inkscape:zoom="0.70710678"
     inkscape:cx="-247.59098"
     inkscape:cy="288.33149"
     inkscape:document-units="mm"
     inkscape:current-layer="layer1"
     showgrid="false"
     units="px"
     inkscape:window-width="1920"
     inkscape:window-height="1027"
     inkscape:window-x="-8"
     inkscape:window-y="-8"
     inkscape:window-maximized="1" />
  <metadata
     id="metadata5">
    <rdf:RDF>
      <cc:Work
         rdf:about="">
        <dc:format>image/svg+xml</dc:format>
        <dc:type
           rdf:resource="http://purl.org/dc/dcmitype/StillImage" />
        <dc:title />
      </cc:Work>
    </rdf:RDF>
  </metadata>
  <g
     inkscape:label="Layer 1"
     inkscape:groupmode="layer"
     id="layer1"
     transform="translate(0,-164.70832)">
    <path
       style="fill:#678cb1;stroke-width:0.29380196;fill-opacity:1"
       d="M 67.713291,164.70832 A 67.713294,66.145835 0 0 0 0,230.85415 67.713294,66.145835 0 0 0 67.713291,296.99998 67.713294,66.145835 0 0 0 132.29167,250.6979 h -29.43676 a 40.627975,39.6875 0 0 1 -35.141619,19.84375 40.627975,39.6875 0 0 1 -40.627974,-39.6875 40.627975,39.6875 0 0 1 40.627974,-39.6875 40.627975,39.6875 0 0 1 35.126269,19.84375 h 29.3881 A 67.713294,66.145835 0 0 0 67.713291,164.70832 Z"
       id="path42"
       inkscape:connector-curvature="0" />
    <path
       style="fill:#000000;stroke-width:0.2913703"
       d="M 53.933971,211.01041 A 14.246815,11.906208 0 0 0 39.6875,222.9164 v 27.78151 h 14.246471 v -7.19354 -8.68146 -6.20141 a 2.5440741,3.2245982 0 0 1 2.544183,-3.22453 2.5440741,3.2245982 0 0 1 2.54418,3.22453 v 5.41284 9.47003 7.19354 h 14.246999 v -7.19354 -9.4808 -5.40207 a 2.5440742,3.2245982 0 0 1 2.544182,-3.22453 2.5440742,3.2245982 0 0 1 2.544179,3.22453 v 14.88287 h -5.25e-4 v 7.19354 H 92.604167 V 222.9164 A 14.246815,11.906208 0 0 0 78.357169,211.01041 14.246815,11.906208 0 0 0 66.14636,216.81036 14.246815,11.906208 0 0 0 53.933971,211.01041 Z"
       id="path69"
       inkscape:connector-curvature="0" />
  </g>
</svg>
